<svg width="256" height="256" viewBox="0 0 256 256" fill="none" xmlns="http://www.w3.org/2000/svg">
  <defs>
    <linearGradient id="grad" x1="0" y1="0" x2="256" y2="256" gradientUnits="userSpaceOnUse">
      <stop offset="0%" stop-color="#00E5FF" />
      <stop offset="100%" stop-color="#0A47FF" />
    </linearGradient>
  </defs>
  <rect width="256" height="256" rx="42" fill="#070E19" />
  <path d="M52 66L128 32L204 66V146C204 188 166 230 128 236C90 230 52 188 52 146V66Z" fill="url(#grad)" fill-opacity="0.15"/>
  <path d="M72 80L128 52L184 80V140C184 176 152 212 128 220C104 212 72 176 72 140V80Z" stroke="#00E5FF" stroke-width="10" stroke-linejoin="round"/>
  <path d="M128 52V220" stroke="#00E5FF" stroke-width="8" stroke-linecap="round"/>
  <path d="M78 112L178 112" stroke="#00E5FF" stroke-width="8" stroke-linecap="round"/>
  <path d="M100 154L156 154" stroke="#00E5FF" stroke-width="8" stroke-linecap="round"/>
  <text x="128" y="190" text-anchor="middle" fill="#E0F7FF" font-family="Inter, sans-serif" font-size="32" font-weight="700">AETHER</text>
  <text x="128" y="218" text-anchor="middle" fill="#A8F4FF" font-family="Inter, sans-serif" font-size="16" letter-spacing="0.2em">1201</text>
</svg>
